<svg id="Capa_1" enable-background="new 0 0 511 511" height="512" viewBox="0 0 511 511" width="512" xmlns="http://www.w3.org/2000/svg"><path d="m255.5 503.5c57.305 0 209.506-108.778 205.878-274.844-2.885-132.101-80.742-221.156-205.878-221.156s-202.993 89.055-205.878 221.156c-3.628 166.066 148.573 274.844 205.878 274.844z" fill="#98db7c"/><path d="m461.221 223.545c-6.333 156.718-150.34 258.317-205.721 258.317-55.382 0-199.388-101.599-205.721-258.317-.063 1.698-.12 3.398-.158 5.111-3.627 166.066 148.574 274.844 205.879 274.844s209.506-108.778 205.878-274.844c-.037-1.712-.094-3.413-.157-5.111z" fill="#82d361"/><path d="m162.665 204.398c-33.778-10.795-76.633 26.133-65.873 70.716 12.227 50.666 90.655 66.927 108.846 48.516 22.749-23.025 1.206-105.113-42.973-119.232z" fill="#5a5a5a"/><path d="m205.638 305.63c-18.191 18.411-96.619 2.15-108.846-48.516-.403-1.668-.721-3.324-.977-4.968-1.149 7.259-.949 14.99.977 22.968 12.227 50.666 90.655 66.927 108.846 48.516 7.768-7.862 10.368-22.61 8.67-39.187-1.068 8.885-3.886 16.345-8.67 21.187z" fill="#494949"/><path d="m348.335 204.398c33.778-10.795 76.633 26.133 65.873 70.716-12.227 50.666-90.655 66.927-108.846 48.516-22.749-23.025-1.205-105.113 42.973-119.232z" fill="#5a5a5a"/><path d="m414.208 257.114c-12.227 50.666-90.655 66.927-108.846 48.516-4.784-4.842-7.602-12.302-8.67-21.187-1.698 16.577.902 31.325 8.67 39.187 18.191 18.411 96.619 2.15 108.846-48.516 1.926-7.979 2.126-15.71.977-22.968-.256 1.644-.574 3.3-.977 4.968z" fill="#494949"/><path d="m164.949 197.254c-18.182-5.811-39.498-.101-55.631 14.901-18.121 16.853-25.529 41.046-19.816 64.718 6.457 26.755 30.351 48.302 63.917 57.639 9.596 2.669 18.86 3.975 27.206 3.975 13.208 0 24.11-3.272 30.348-9.585 11.573-11.712 14.528-34.789 7.905-61.728-6.483-26.377-24.497-60.514-53.929-69.92zm35.354 121.104c-5.119 5.181-21.883 7.538-42.865 1.702-41.859-11.644-51.421-38.693-53.356-46.706-4.424-18.332 1.352-37.104 15.451-50.215 9.15-8.51 20.27-13.133 30.763-13.133 3.461 0 6.854.503 10.086 1.536 14.706 4.7 35.035 23.027 43.93 59.211 5.127 20.858 3.516 39.989-4.009 47.605z"/><path d="m468.877 228.492c-1.47-67.319-21.893-124.379-59.059-165.014-37.984-41.527-91.346-63.478-154.318-63.478-57.98 0-108.292 18.829-145.495 54.451-2.992 2.864-3.095 7.612-.23 10.604s7.612 3.095 10.604.23c34.357-32.897 81.081-50.285 135.121-50.285 58.648 0 108.183 20.264 143.249 58.602 34.677 37.913 53.741 91.586 55.131 155.218.138 6.319.043 12.71-.283 18.994-.215 4.136 2.965 7.664 7.102 7.878.132.007.264.01.395.01 3.964 0 7.276-3.107 7.483-7.112.346-6.65.446-13.412.3-20.098z"/><path d="m459.054 270.705c-4.083-.688-7.952 2.069-8.639 6.154-9.851 58.647-41.22 115.542-88.329 160.204-42.712 40.494-85.192 58.937-106.586 58.937-34.026 0-87.381-37.49-120.306-72.765-2.827-3.028-7.572-3.191-10.601-.365-3.028 2.827-3.191 7.572-.365 10.601 21.513 23.048 45.955 42.738 70.682 56.942 23.113 13.275 44.631 20.587 60.59 20.587 30.146 0 77.127-25.339 116.907-63.052 49.458-46.888 82.415-106.767 92.802-168.605.686-4.085-2.07-7.952-6.155-8.638z"/><path d="m57.12 228.819c1.227-56.171 16.491-105.267 44.141-141.978 2.492-3.309 1.83-8.011-1.479-10.503s-8.012-1.83-10.503 1.479c-29.554 39.239-45.859 91.341-47.155 150.676-1.78 81.481 32.968 143.879 62.432 181.877 1.478 1.906 3.693 2.905 5.932 2.905 1.606 0 3.224-.514 4.59-1.574 3.273-2.538 3.87-7.249 1.331-10.522-27.977-36.082-60.973-95.273-59.289-172.36z"/><path d="m330.376 338.486c8.345 0 17.611-1.306 27.206-3.975 33.566-9.336 57.461-30.884 63.917-57.639 5.713-23.672-1.695-47.866-19.816-64.718-16.132-15.002-37.449-20.712-55.631-14.901-29.432 9.406-47.446 43.544-53.929 69.919-6.623 26.94-3.667 50.016 7.905 61.728 6.238 6.315 17.138 9.586 30.348 9.586zm-23.688-67.733c8.895-36.185 29.224-54.512 43.93-59.211 13.029-4.164 28.68.28 40.849 11.597 14.099 13.111 19.874 31.883 15.451 50.215-1.934 8.013-11.497 35.063-53.355 46.706-20.984 5.834-37.746 3.479-42.865-1.702-7.525-7.616-9.137-26.747-4.01-47.605z"/><path d="m284.95 363.47c-.091.133-9.38 13.345-29.45 13.345-19.742 0-29.096-12.848-29.45-13.345-2.343-3.416-7.01-4.288-10.427-1.945-3.417 2.342-4.287 7.01-1.945 10.427.556.811 13.938 19.863 41.822 19.863 27.885 0 41.266-19.052 41.822-19.863 2.342-3.416 1.471-8.084-1.945-10.427-3.416-2.341-8.084-1.471-10.427 1.945z"/></svg>