<svg height="512" viewBox="0 0 58 60" width="512" xmlns="http://www.w3.org/2000/svg"><g id="037---Down-Arrow" fill="none"><g id="Icons"><path id="Shape" d="m57 28v5c-.0480752 2.6443265-1.1969917 5.1487471-3.17 6.91l-18.82 16.8c-1.0585494.9335408-2.3176947 1.6110157-3.68 1.98-2.9092033.7745577-6.0131092.0510627-8.28-1.93-.75-.76-3.601-3.209-18.87-16.84-1.9743576-1.7654356-3.12621348-4.2719899-3.18-6.92v-5c.049681 2.6489504 1.20225501 5.1570674 3.18 6.92 15.27 13.63 18.12 16.08 18.87 16.84 3.4042501 2.973341 8.4807533 2.9776105 11.89.01.02-.02.05-.04.07-.06l18.82-16.8c1.9730083-1.7612529 3.1219248-4.2656735 3.17-6.91z" fill="#f57c00"/><path id="Shape" d="m57 28c-.0480752 2.6443265-1.1969917 5.1487471-3.17 6.91l-18.82 16.8c-.02.02-.05.04-.07.06-3.4092467 2.9676105-8.4857499 2.963341-11.89-.01-.75-.76-3.6-3.21-18.87-16.84-1.97774499-1.7629326-3.130319-4.2710496-3.18-6.92-.03916919-2.0045257.61423893-3.9612181 1.85-5.54 1.5391389-1.9634759 3.82180659-3.2029567 6.30677718-3.4245585 2.48497062-.2216018 4.95094062.5944105 6.81322282 2.2545585 1.27 1.13.74.66 2.34 2.09.2943809.2657075.7179586.3323576 1.0797126.1698933.3617539-.1624643.5933272-.523344.5902874-.9198933v-12.32c-.0576997-4.82325543 3.6143126-8.87467995 8.42-9.29 2.4880595-.16824378 4.9346106.70199169 6.7575473 2.40365197 1.8229368 1.70166027 2.8592797 4.08260868 2.8624527 6.57634803v12.63c-.0030398.3965493.2285335.757429.5902874.9198933.361754.1624643.7853317.0958142 1.0797126-.1698933l2.34-2.09c1.8321201-1.6299934 4.2476081-2.4461282 6.6928904-2.2613651 2.4452822.184763 4.7107135 1.3545833 6.2771096 3.2413651 1.3256557 1.612065 2.0345878 3.6431554 2 5.73z" fill="#ffdc00"/><g fill="#fec108"><path id="Shape" d="m35.02 10v12.63c-.0030398.3965493.2285335.757429.5902874.9198933.361754.1624643.7853317.0958142 1.0797126-.1698933l1.33-1.188v-12.192c-.0027535-2.65428043-1.175724-5.17230449-3.205909-6.88214695-2.0301849-1.70984247-4.7110041-2.43751943-7.327091-1.98885305 4.342255.7173797 7.5287772 4.46988713 7.533 8.871z"/><path id="Shape" d="m55 22.27c-2.0513765-2.4735029-5.2635711-3.6691722-8.433-3.139 2.1293762.3594375 4.0580666 1.4737683 5.433 3.139 3.0478868 3.8497698 2.5327424 9.4150907-1.17 12.64l-18.82 16.8c-.02.02-.05.04-.07.06-1.2519483 1.0852876-2.7757921 1.8091826-4.408 2.094 2.6582624.4455835 5.3763679-.3227363 7.408-2.094.02-.02.05-.04.07-.06l18.82-16.8c3.7027424-3.2249093 4.2178868-8.7902302 1.17-12.64z"/></g></g><g id="Layer_10" fill="#000" transform="translate(-1 -1)"><path id="Shape" d="m18.788 43.736c.2665201.2379389.6397338.3156167.979055.203773.3393212-.1118438.593199-.3962174.666-.7460001.0728011-.3497826-.0465348-.711834-.313055-.9497729l-11.2-10c-.41200442-.3678216-1.04417836-.3320044-1.412.08s-.33200442 1.0441784.08 1.412z"/><path id="Shape" d="m26.334 50.473c.2665201.2379389.6397338.3156167.979055.203773.3393212-.1118438.593199-.3962174.666-.7460001.0728011-.3497826-.0465348-.711834-.313055-.9497729l-4-3.571c-.4140298-.3429611-1.0251314-.2971839-1.3834453.1036328-.358314.4008166-.3355894 1.0132089.0514453 1.3863672z"/><path id="Shape" d="m1 34c.05361832 2.9329715 1.32700569 5.7109418 3.514 7.666l18.886 16.853c1.8197568 1.5905642 4.1521181 2.4714576 6.569 2.481 1.4116738-.0017171 2.807681-.2959 4.1-.864 1.921-.818 1.381-.589 21.428-18.482 2.1839838-1.9511663 3.4538432-4.7257891 3.503-7.654 0-5.978.011-4.851-.026-5.126.005-8.672-10.294-12.969-16.612-7.327l-2.342 2.085v-12.632c-.0034745-2.77006161-1.1542146-5.41494261-3.1785974-7.30574342s-4.7415459-2.85859356-7.5054026-2.67325658c-5.3373412.43827755-9.4253511 4.93211787-9.358 10.287v12.325l-2.339-2.086c-2.9472151-2.6405477-7.176172-3.2904005-10.78021996-1.6565683-3.60404795 1.6338321-5.9023803 5.2427175-5.85878004 9.1995683zm53.164 6.164c-20.073 17.917-19.296 17.429-20.88 18.136-2.9117504 1.3097854-6.3231681.7664884-8.684-1.383l-18.752-16.742c-1.46615587-1.3151483-2.43418916-3.0954679-2.741-5.041.893 1.179-.163.129 20.293 18.377 3.8112225 3.3285372 9.5029858 3.303688 13.285-.058 20.364-18.184 19.315-17.129 20.209-18.327-.298585 1.9449868-1.2635936 3.7258342-2.73 5.038zm-49.527-16.088c1.36859709-1.7473956 3.39948991-2.8502912 5.6103391-3.046748 2.2108491-.1964568 4.4043925.5310541 6.0596609 2.009748l2.337 2.086c.5880355.5278568 1.4317378.6599966 2.1530016.3372008.7212638-.3227959 1.1848484-1.0400013 1.1829984-1.8302008v-12.324c-.0703957-4.3006404 3.1995338-7.92224569 7.485-8.29 2.2125669-.15208206 4.389089.62044902 6.0106663 2.1334157s2.5429059 3.63079733 2.5443337 5.8485843v12.632c-.0022466.7903808.4611904 1.5079486 1.18254 1.830999.7213496.3230505 1.5652897.1909807 2.15346-.336999l2.338-2.087c1.6282683-1.4528633 3.7776007-2.1806663 5.9535954-2.0159954s4.191322 1.2076392 5.5824046 2.8889954c2.6885045 3.4406089 2.2186718 8.3826344-1.07 11.255l-18.878 16.847c-3.0543457 2.6540308-7.6032684 2.6313525-10.631-.053l-18.808-16.792c-3.2562879-2.8053394-3.78336016-7.6534427-1.206-11.093z"/></g></g></svg>