<?xml version="1.0" encoding="iso-8859-1"?>
<!-- Generator: Adobe Illustrator 19.0.0, SVG Export Plug-In . SVG Version: 6.00 Build 0)  -->
<svg version="1.1" id="Capa_1" xmlns="http://www.w3.org/2000/svg" xmlns:xlink="http://www.w3.org/1999/xlink" x="0px" y="0px"
	 viewBox="0 0 512.002 512.002" style="enable-background:new 0 0 512.002 512.002;" xml:space="preserve">
<path style="fill:#FFDAB5;" d="M165.739,419.676h-29.47c-17.348,0-31.413-14.064-31.413-31.413l0,0
	c0-17.348,14.064-31.413,31.413-31.413h29.47c17.348,0,31.413,14.064,31.413,31.413l0,0
	C197.152,405.613,183.087,419.676,165.739,419.676z"/>
<path style="opacity:0.1;enable-background:new    ;" d="M165.739,356.851h-29.47c-16.565,0-30.126,12.825-31.318,29.086
	c24.45,7.125,55.635,10.711,90.606,12.205c1.029-3.107,1.594-6.426,1.594-9.878l0,0
	C197.152,370.915,183.087,356.851,165.739,356.851z"/>
<path style="fill:#FFDAB5;" d="M315.369,419.676H285.9c-17.348,0-31.413-14.064-31.413-31.413l0,0
	c0-17.348,14.064-31.413,31.413-31.413h29.47c17.348,0,31.413,14.064,31.413,31.413l0,0
	C346.782,405.613,332.719,419.676,315.369,419.676z"/>
<path style="opacity:0.1;enable-background:new    ;" d="M315.369,356.851H285.9c-17.348,0-31.413,14.064-31.413,31.413l0,0
	c0,3.763,0.664,7.371,1.877,10.715c34.32-0.225,63.91-1.223,89.431-2.875c0.644-2.506,0.987-5.133,0.987-7.84l0,0
	C346.782,370.915,332.719,356.851,315.369,356.851z"/>
<path style="fill:#C27C59;" d="M486.045,289.719c-33.312-10.721-66.475-40.488-89.277-69.197l-0.003,0.003
	c0-0.001-0.001-0.001-0.001-0.001l0.004-0.002l24.034-57.915c3.317-7.993-3.023-16.656-11.645-15.912l-51.96,4.487
	c-3.361,0.29-6.574-1.441-8.18-4.407l-20.656-38.153c-3.449-6.371-11.849-8.022-17.453-3.43l-33.266,27.26
	c-3.414,2.798-8.404,2.505-11.468-0.671L231.514,95.85c-4.765-4.94-12.764-4.651-17.16,0.621l-27.813,33.359
	c-2.618,3.141-7.106,3.963-10.668,1.955l-37.601-21.196c-6.94-3.913-15.663,0.223-17.027,8.072l-6.91,39.757
	c-0.793,4.56-5.097,7.64-9.669,6.918l-41.981-6.628c-7.803-1.232-14.507,5.568-13.165,13.352l6.45,37.412
	c0.719,4.171-1.75,8.232-5.783,9.514l-34.648,11.009c-7.542,2.396-10.485,11.502-5.773,17.86l27.316,36.856
	c2.405,3.245,2.185,7.736-0.526,10.731L12.097,322.46c-5.61,6.197-2.97,16.117,4.977,18.707l72.94,23.768
	c34.965,14.273,89.67,18.237,151.165,18.237c223.64,0,258.239-30.914,263.047-64.365
	C506.073,305.966,498.396,293.694,486.045,289.719z"/>
<path style="opacity:0.1;enable-background:new    ;" d="M153.328,339.758l3.873-16.973c0.702-3.076,0.357-6.299-0.981-9.157
	l-21.295-45.501c-2.307-4.929-1.586-10.743,1.853-14.96l12.778-15.664c3.12-3.825,4.026-8.991,2.389-13.647
	c-7.441-21.163-28.145-81.533-30.699-105.192l-6.91,39.757c-0.793,4.56-5.097,7.64-9.669,6.918l-41.981-6.628
	c-7.803-1.232-14.507,5.568-13.165,13.352l6.45,37.412c0.719,4.171-1.75,8.232-5.783,9.514L15.54,229.996
	c-7.542,2.396-10.485,11.502-5.773,17.86l27.316,36.856c2.405,3.245,2.185,7.736-0.526,10.73l-24.46,27.019
	c-5.61,6.197-2.97,16.117,4.977,18.707l72.94,23.768c28.462,11.619,70.006,16.405,117.644,17.784l-47.614-27.551
	C154.669,352.061,151.946,345.812,153.328,339.758z"/>
<path style="fill:#FFDAB5;" d="M485.637,289.587c-33.175-10.832-66.16-40.473-88.869-69.063l-0.003,0.003l-0.001-0.001
	c-45.821,30.756-60.436,122.208-26.466,157.83c109.461-9.977,130.35-34.116,133.953-59.713
	C506.063,305.762,498.002,293.624,485.637,289.587z"/>
<path style="fill:#666D75;" d="M485.638,289.587c-21.967,17.221-18.509,43.123,2.463,57.434
	c10.752-8.746,14.753-18.452,16.15-28.379C506.063,305.762,498.002,293.624,485.638,289.587z"/>
<ellipse style="fill:#FFA6BB;" cx="396.562" cy="319.387" rx="20.423" ry="16.264"/>
<path d="M488.344,282.58c-26.554-8.546-57.319-32.077-82.94-63.299l22.326-53.798c2.57-6.195,1.739-13.125-2.222-18.537
	c-3.962-5.412-10.309-8.299-16.997-7.721l-51.961,4.487c-0.368,0.034-0.752-0.165-0.937-0.506l-20.656-38.153
	c-2.713-5.011-7.476-8.515-13.066-9.614c-5.594-1.1-11.327,0.342-15.736,3.954l-33.265,27.26c-0.387,0.318-0.967,0.287-1.316-0.077
	l-34.659-35.931c-3.749-3.886-9.002-6.004-14.388-5.807c-5.395,0.195-10.473,2.686-13.931,6.833l-27.813,33.359
	c-0.301,0.361-0.815,0.454-1.225,0.224l-37.6-21.196c-5.38-3.033-11.921-3.265-17.501-0.619c-5.58,2.645-9.542,7.856-10.6,13.939
	l-6.91,39.758c-0.09,0.52-0.593,0.872-1.108,0.793l-3.114-0.492c-4.098-0.645-7.933,2.147-8.578,6.239
	c-0.646,4.091,2.147,7.932,6.238,8.578l3.114,0.492c8.573,1.355,16.743-4.499,18.228-13.042l6.91-39.757
	c0.311-1.791,1.54-2.62,2.245-2.954c0.705-0.335,2.125-0.762,3.71,0.131l37.601,21.197c6.717,3.786,15.175,2.235,20.111-3.686
	l27.813-33.359c1.003-1.203,2.28-1.423,2.952-1.448c0.664-0.026,1.962,0.103,3.049,1.231l34.659,35.931
	c5.734,5.945,15.23,6.5,21.619,1.266l33.265-27.26c1.281-1.049,2.642-0.975,3.336-0.838c0.696,0.137,1.982,0.583,2.769,2.038
	l20.656,38.152c3.028,5.596,9.064,8.855,15.42,8.31l51.96-4.487c2.035-0.177,3.198,1.085,3.602,1.636
	c0.403,0.551,1.256,2.036,0.472,3.929l-23.204,55.914c-31.137,22.288-45.795,67.232-46.483,102.514
	c-0.08,4.142,3.212,7.564,7.353,7.645c0.05,0.001,0.099,0.001,0.148,0.001c4.074,0,7.416-3.263,7.496-7.354
	c0.682-35.044,15.354-69.838,36.346-87.587c11.457,13.684,24.217,26.323,37.219,36.831c13.35,10.789,26.563,19.067,39.425,24.732
	c-6.133,7.76-9.273,16.719-8.964,26.065c0.337,10.204,4.79,19.967,12.487,27.871c-17.257,10.287-47.969,19.003-102.255,24.192
	c-3.434-4.233-6.316-9.329-8.571-15.223c-1.479-3.868-5.813-5.809-9.684-4.327c-3.869,1.479-5.806,5.815-4.326,9.684
	c1.552,4.059,3.372,7.83,5.422,11.327c-3.454,0.26-6.992,0.508-10.617,0.742c-0.26,0.003-0.521,0.02-0.784,0.05
	c-28.826,1.843-63.056,2.863-103.704,2.863c-57.784,0-99.615-3.657-129.144-11.399c-0.268-0.085-0.539-0.157-0.812-0.211
	c-6.763-1.804-12.874-3.825-18.374-6.07c-0.168-0.068-0.339-0.131-0.511-0.187L19.4,334.038c-1.882-0.613-2.479-2.162-2.649-2.798
	c-0.17-0.637-0.421-2.278,0.906-3.744l24.461-27.019c5.093-5.625,5.509-14.134,0.99-20.23l-27.316-36.856
	c-1.075-1.451-0.836-2.905-0.598-3.642c0.239-0.738,0.895-2.057,2.617-2.604l34.647-11.009c7.565-2.403,12.252-10.113,10.903-17.936
	l-6.45-37.413c-0.248-1.44,0.279-2.497,0.765-3.129c0.695-0.904,1.723-1.479,2.818-1.578c4.126-0.37,7.17-4.015,6.8-8.14
	s-4.024-7.163-8.14-6.799c-5.258,0.472-10.131,3.16-13.371,7.377c-3.271,4.255-4.568,9.518-3.653,14.819l6.45,37.412
	c0.082,0.476-0.203,0.946-0.664,1.092l-34.649,11.009c-5.845,1.858-10.46,6.451-12.347,12.286
	c-1.887,5.835-0.832,12.261,2.819,17.188l27.316,36.856c0.275,0.372,0.25,0.889-0.06,1.231L6.534,317.429
	c-4.347,4.803-5.948,11.407-4.282,17.667c1.666,6.261,6.337,11.196,12.496,13.204l72.685,23.685
	c3.703,1.503,7.659,2.908,11.859,4.223c-1.264,3.871-1.938,7.93-1.938,12.056c0,21.456,17.456,38.913,38.913,38.913h29.47
	c20.836,0,37.898-16.463,38.866-37.065c11.459,0.374,23.628,0.563,36.575,0.563c1.978,0,3.938-0.003,5.888-0.008
	c1.246,20.34,18.182,36.51,38.832,36.51h29.471c21.456,0,38.912-17.456,38.912-38.913c0-0.353-0.024-0.704-0.034-1.057
	c76.104-5.515,116.814-17.365,137.757-33.796c0.557-0.339,1.074-0.752,1.536-1.241c11.29-9.42,16.385-20.29,18.111-32.294
	C514.023,303.376,504.22,287.691,488.344,282.58z M165.739,412.177h-29.47c-13.186,0-23.913-10.727-23.913-23.913
	c0-2.79,0.49-5.534,1.427-8.123c20.186,4.73,45.17,7.812,75.836,9.356C188.977,402.111,178.511,412.177,165.739,412.177z
	 M315.37,412.177H285.9c-12.404,0-22.629-9.493-23.798-21.595c28.846-0.262,54.455-1.074,77.178-2.398
	c0,0.027,0.003,0.054,0.003,0.081C339.282,401.449,328.555,412.177,315.37,412.177z M496.803,317.741
	c-0.937,6.515-3.399,13.063-9.206,19.293c-5.805-5.448-9.167-12.158-9.395-19.034c-0.236-7.15,2.816-13.898,8.854-19.718
	C493.959,302.036,497.958,309.714,496.803,317.741z M404.061,302.177c0-3.778,3.073-6.852,6.852-6.852
	c3.778,0,6.853,3.074,6.853,6.852c0,4.142,3.357,7.5,7.5,7.5s7.5-3.358,7.5-7.5c0-12.049-9.803-21.852-21.853-21.852
	c-12.049,0-21.852,9.803-21.852,21.852c0,4.142,3.357,7.5,7.5,7.5C400.704,309.677,404.061,306.319,404.061,302.177z
	 M260.752,234.099l33.266-27.26c1.278-1.048,2.639-0.976,3.334-0.838c0.697,0.137,1.982,0.584,2.77,2.037l20.655,38.153
	c1.358,2.508,3.938,3.931,6.603,3.931c1.205,0,2.429-0.291,3.563-0.906c3.643-1.972,4.997-6.523,3.025-10.166l-20.655-38.153
	c-2.714-5.011-7.477-8.515-13.068-9.614c-5.593-1.1-11.327,0.342-15.734,3.954l-33.266,27.26c-3.204,2.626-3.673,7.351-1.047,10.555
	C252.823,236.257,257.548,236.724,260.752,234.099z M170.234,231.527l-37.601-21.197c-5.38-3.033-11.921-3.265-17.501-0.619
	c-5.58,2.645-9.542,7.856-10.6,13.94l-6.91,39.757c-0.709,4.081,2.024,7.964,6.105,8.673c0.435,0.076,0.866,0.112,1.293,0.112
	c3.578,0,6.747-2.571,7.381-6.217l6.91-39.757c0.311-1.792,1.541-2.62,2.246-2.954c0.705-0.334,2.123-0.762,3.708,0.131
	l37.601,21.197c3.612,2.035,8.183,0.758,10.217-2.85C175.118,238.135,173.841,233.561,170.234,231.527z M171.119,304.611
	l20.317,30.147c3.427,5.085,9.133,8.222,15.264,8.39c0.173,0.004,0.346,0.007,0.518,0.007c5.942,0,11.587-2.797,15.183-7.55
	l23.137-30.584c2.499-3.304,1.847-8.007-1.457-10.506c-3.302-2.498-8.007-1.846-10.506,1.457l-23.136,30.584
	c-1.089,1.44-2.548,1.622-3.327,1.599c-0.774-0.021-2.226-0.28-3.234-1.778L183.56,296.23c-2.316-3.436-6.978-4.344-10.411-2.028
	C169.712,296.515,168.804,301.176,171.119,304.611z"/>
<g>
</g>
<g>
</g>
<g>
</g>
<g>
</g>
<g>
</g>
<g>
</g>
<g>
</g>
<g>
</g>
<g>
</g>
<g>
</g>
<g>
</g>
<g>
</g>
<g>
</g>
<g>
</g>
<g>
</g>
</svg>
