<svg height="512" viewBox="0 0 58 61" width="512" xmlns="http://www.w3.org/2000/svg"><g id="Page-1" fill="none" fill-rule="evenodd"><g id="042---Chat-Settings" fill-rule="nonzero"><path id="Shape" d="m21.631 7.694 2.023-5.4c.2940006-.77924683 1.0401366-1.29473003 1.873-1.294h6.946c.8343843.00020836 1.5809655.51839072 1.873 1.3l2.023 5.4 8.279 4.78 5.685-.946c.8223415-.1366773 1.6432158.2510463 2.06.973l3.473 6.016c.4166989.7217254.3421897 1.6261958-.187 2.27l-3.662 4.45v9.557l3.662 4.45c.5296434.6440055.6041656 1.5490318.187 2.271l-3.473 6.016c-.4167842.7219537-1.2376585 1.1096773-2.06.973l-5.685-.946-8.279 4.78-2.023 5.4c-.2920345.7816093-1.0386157 1.2997916-1.873 1.3h-6.946c-.8343843-.0002084-1.5809655-.5183907-1.873-1.3l-2.023-5.4-8.279-4.78-5.685.946c-.82234149.1366773-1.64321578-.2510463-2.06-.973l-3.473-6.019c-.41716562-.7219682-.34264342-1.6269945.187-2.271l3.662-4.447v-9.56l-3.662-4.45c-.52918966-.6438042-.6036989-1.5482746-.187-2.27l3.473-6.02c.41678422-.7219537 1.23765851-1.1096773 2.06-.973l5.685.946z" fill="#02a9f4"/><path id="Shape" d="m31.346 2.3 2.023 5.4 8.279 4.78 2.329-.388-7.608-4.398-2.023-5.394c-.2920345-.78160928-1.0386157-1.29979164-1.873-1.3h-3c.8343843.00020836 1.5809655.51839072 1.873 1.3z" fill="#0377bc"/><path id="Shape" d="m41.648 47.561-8.279 4.78-2.023 5.4c-.2920345.7816093-1.0386157 1.2997916-1.873 1.3h3c.8343843-.0002084 1.5809655-.5183907 1.873-1.3l2.023-5.4 7.608-4.393z" fill="#0377bc"/><path id="Shape" d="m52.017 34.8v-9.56l3.662-4.45c.5291897-.6438042.6036989-1.5482746.187-2.27l-3.473-6.02c-.4167842-.7219537-1.2376585-1.1096773-2.06-.973l-1.653.273c.2936555.1684707.5391549.4094939.713.7l3.473 6.016c.4166989.7217254.3421897 1.6261958-.187 2.27l-3.662 4.45v9.564l3.662 4.45c.5296434.6440055.6041656 1.5490318.187 2.271l-3.473 6.016c-.1738451.2905061-.4193445.5315293-.713.7l1.653.275c.8223415.1366773 1.6432158-.2510463 2.06-.973l3.473-6.016c.4171656-.7219682.3426434-1.6269945-.187-2.271z" fill="#0377bc"/><circle id="Oval" cx="29" cy="30.017" fill="#e91e63" r="16.983"/><path id="Shape" d="m29 13.034c-.506 0-1 .033-1.5.076 8.7645402.7692802 15.4880408 8.108764 15.4880408 16.907s-6.7235006 16.1377198-15.4880408 16.907c.5.044.994.076 1.5.076 9.3794518-.0000001 16.9829997-7.6035482 16.9829997-16.983s-7.6035479-16.9829999-16.9829997-16.983z" fill="#ad1457"/><circle id="Oval" cx="19" cy="30" fill="#ffdc00" r="3"/><circle id="Oval" cx="29" cy="30" fill="#ffdc00" r="3"/><circle id="Oval" cx="39" cy="30" fill="#ffdc00" r="3"/><g fill="#000"><path id="Shape" d="m56.451 21.423c.7904964-.9673784.9022669-2.322149.281-3.406l-3.473-6.017c-.6270097-1.0815103-1.8574172-1.6626798-3.091-1.46l-5.331.888-7.657-4.421-1.9-5.061c-.4425908-1.16721352-1.5587016-1.94097615-2.807-1.946h-6.946c-1.2494697.00451083-2.3668721.77873949-2.81 1.947l-1.9 5.06-7.657 4.422-5.331-.888c-1.23219019-.2003522-2.4603154.3799051-3.088 1.459l-3.473 6.017c-.62126691 1.083851-.50949635 2.4386216.281 3.406l3.434 4.177v8.842l-3.434 4.169c-.79067006.9676931-.90243886 2.32284-.281 3.407l3.473 6.016c.62830675 1.080023 1.85784845 1.6603857 3.091 1.459l5.331-.888 7.657 4.422 1.9 5.061c.442983 1.1682346 1.5606034 1.9422166 2.81 1.946h6.946c1.2496488-.0039414 2.3673424-.7783718 2.81-1.947l1.9-5.06 7.657-4.422 5.331.888c1.2332763.2022748 2.4633004-.3783156 3.091-1.459l3.473-6.016c.6214389-1.08416.5096701-2.4393069-.281-3.407l-3.434-4.173v-8.838zm-5.206 14.01 3.662 4.45c.2644344.3220104.3014892.7742391.093 1.135l-3.473 6.016c-.20967.3596241-.6190097.5531662-1.03.487l-5.685-.947c-.2285438-.0371381-.4629117.0052175-.664.12l-8.279 4.781c-.2009924.1155108-.3552367.297703-.436.515l-2.023 5.395c-.1478312.3894724-.5204179.6475394-.937.649h-6.946c-.4163303-.0013022-.788844-.2589211-.937-.648l-2.023-5.4c-.0807633-.217297-.2350076-.3994892-.436-.515l-8.279-4.781c-.2011442-.1146285-.4354577-.1569743-.664-.12l-5.688.951c-.41128279.0682445-.82175057-.125831-1.03-.487l-3.47-6.016c-.20848923-.3607609-.17143437-.8129896.093-1.135l3.662-4.45c.14697363-.1794178.22750913-.4040695.228-.636v-9.56c-.00014429-.2316879-.08073387-.456137-.228-.635l-3.662-4.451c-.26398103-.3218087-.30102301-.7734819-.093-1.134l3.473-6.017c.2100702-.3591875.61909313-.5525799 1.03-.487l5.685.946c.2285431.0370561.4628837-.0052946.664-.12l8.279-4.78c.2007885-.11621738.3549218-.29863203.436-.516l2.023-5.394c.1478312-.38947238.5204179-.64753939.937-.649h6.946c.4163303.00130219.788844.25892109.937.648l2.023 5.4c.0810782.21736797.2352115.39978262.436.516l8.279 4.78c.2010883.1147825.4354562.1571381.664.12l5.685-.946c.4109903-.0661662.82033.1273759 1.03.487l3.473 6.012c.208023.3605181.170981.8121913-.093 1.134l-3.662 4.449c-.1472661.178863-.2278557.4033121-.228.635v9.565c.0011796.2308996.081675.4543802.228.633z"/><path id="Shape" d="m29 12.034c-9.9316065 0-17.9828159 8.0510602-17.983 17.9826667s8.0507269 17.9829651 17.9823334 17.9833333c9.9316064.0003682 17.9831143-8.0503935 17.9836666-17.982-.0088207-9.9282426-8.0547579-17.9746272-17.983-17.984zm0 33.966c-6.4646111 0-12.2926561-3.8942412-14.7664622-9.8668017s-1.1061852-12.8472122 3.4651281-17.4182395c4.5713133-4.5710274 11.4460506-5.9382181 17.4184563-3.4640383 5.9724058 2.4741798 9.8662823 8.3024685 9.8658778 14.7670795-.0099208 8.8228926-7.1601068 15.9726312-15.983 15.982z"/><path id="Shape" d="m23 30c0-2.209139-1.790861-4-4-4s-4 1.790861-4 4 1.790861 4 4 4 4-1.790861 4-4zm-6 0c0-1.1045695.8954305-2 2-2s2 .8954305 2 2-.8954305 2-2 2-2-.8954305-2-2z"/><path id="Shape" d="m25 30c0 2.209139 1.790861 4 4 4s4-1.790861 4-4-1.790861-4-4-4-4 1.790861-4 4zm6 0c0 1.1045695-.8954305 2-2 2s-2-.8954305-2-2 .8954305-2 2-2 2 .8954305 2 2z"/><path id="Shape" d="m35 30c0 2.209139 1.790861 4 4 4s4-1.790861 4-4-1.790861-4-4-4-4 1.790861-4 4zm6 0c0 1.1045695-.8954305 2-2 2s-2-.8954305-2-2 .8954305-2 2-2 2 .8954305 2 2z"/><path id="Shape" d="m37.469 38.486c-2.2441655 2.2497948-5.2912877 3.5141906-8.469 3.5141906s-6.2248345-1.2643958-8.469-3.5141906c-.2510745-.2599566-.6228779-.3642126-.9725073-.2726972-.3496295.0915155-.6226744.3645604-.7141899.7141899-.0915154.3496294.0127406.7214328.2726972.9725073 2.6190912 2.6249815 6.1748783 4.1001769 9.883 4.1001769s7.2639088-1.4751954 9.883-4.1001769c.3789722-.3923789.3735524-1.0160848-.0121814-1.4018186s-1.0094397-.3911536-1.4018186-.0121814z"/><path id="Shape" d="m20.531 21.548c2.2441655-2.2497948 5.2912877-3.5141906 8.469-3.5141906s6.2248345 1.2643958 8.469 3.5141906c.2510745.2599566.6228779.3642126.9725073.2726972.3496295-.0915155.6226744-.3645604.7141899-.7141899.0915154-.3496294-.0127406-.7214328-.2726972-.9725073-2.6190912-2.6249815-6.1748783-4.1001769-9.883-4.1001769s-7.2639088 1.4751954-9.883 4.1001769c-.2599566.2510745-.3642126.6228779-.2726972.9725073.0915155.3496295.3645604.6226744.7141899.7141899.3496294.0915154.7214328-.0127406.9725073-.2726972z"/></g></g></g></svg>