<svg id="Capa_1" enable-background="new 0 0 512 512" height="512" viewBox="0 0 512 512" width="512" xmlns="http://www.w3.org/2000/svg"><g><g><path d="m170.831 504.5h-78.404c0-88.628 51.424-130.234 51.424-130.234h224.298s51.424 41.606 51.424 130.234h-78.404l-85.169-36.408z" fill="#e7886e"/><path d="m183.851 374.266h-40s-51.424 41.606-51.424 130.234h40c0-88.628 51.424-130.234 51.424-130.234z" fill="#dc6742"/><path d="m341.747 496.913c0 2.566-.193 5.102-.578 7.587h-170.338c-.385-2.485-.578-5.021-.578-7.587 0-36.027 38.39-65.228 85.747-65.228s85.747 29.201 85.747 65.228z" fill="#f3bdae"/><path d="m294.479 56.771h.035c-1.337-13.502 3.27-25.232 8.482-33.833 4.493-7.413-1.866-16.625-10.434-15.312-17.577 2.693-28.042 11.627-33.015 17.198-1.895 2.122-5.198 2.122-7.093 0-4.974-5.571-15.438-14.504-33.015-17.198-8.568-1.313-14.927 7.899-10.434 15.312 5.213 8.601 9.82 20.331 8.482 33.833h.035c-93.489 15.523-164.122 86.524-164.122 171.783 0 96.621 90.707 174.948 202.6 174.948s202.6-78.327 202.6-174.948c0-85.259-70.633-156.26-164.121-171.783z" fill="#e7886e"/><path d="m286 393.502c-111.893 0-202.6-78.327-202.6-174.948 0-69.475 46.904-129.478 114.855-157.715-83.755 21.47-144.855 88.421-144.855 167.715 0 96.621 90.707 174.948 202.6 174.948 31.454 0 61.233-6.19 87.795-17.235-18.317 4.699-37.711 7.235-57.795 7.235z" fill="#e27858"/><g fill="#e8e8e8"><ellipse cx="136.515" cy="217.731" rx="44.088" ry="35.109"/><ellipse cx="375.485" cy="217.731" rx="44.088" ry="35.109"/></g><path d="m133.076 264.272s2.656 48.832 122.924 48.832 122.924-48.832 122.924-48.832l-26.762-25.377-96.162-27.208-100.942 28.153z" fill="#423e4f"/><path d="m256 252.985c49.84 0 49.894 25.524 84.399 25.524 16.108 0 29.173-3.502 38.526-7.237 9.964-3.979 16.521-13.59 16.521-24.319 0-13.596-10.421-24.962-23.972-26.06-76.134-6.168-61.218-42.118-115.473-42.118s-39.339 35.949-115.473 42.118c-13.552 1.098-23.972 12.464-23.972 26.06 0 10.729 6.557 20.34 16.521 24.319 9.353 3.735 22.418 7.237 38.526 7.237 34.503 0 34.557-25.524 84.397-25.524z" fill="#5c586f"/></g><g><path d="m148.726 179.529c0-7.435 6.049-13.484 13.484-13.484s13.485 6.049 13.485 13.484c0 4.142 3.357 7.5 7.5 7.5 4.142 0 7.5-3.358 7.5-7.5 0-15.706-12.778-28.484-28.485-28.484-15.706 0-28.484 12.778-28.484 28.484 0 4.142 3.357 7.5 7.5 7.5 4.141 0 7.5-3.358 7.5-7.5z"/><path d="m336.305 179.529c0-7.435 6.049-13.484 13.485-13.484s13.485 6.049 13.485 13.484c0 4.142 3.358 7.5 7.5 7.5s7.5-3.358 7.5-7.5c0-15.706-12.778-28.484-28.485-28.484s-28.485 12.778-28.485 28.484c0 4.142 3.358 7.5 7.5 7.5s7.5-3.358 7.5-7.5z"/><path d="m109.056 246.957c0 13.812 8.292 26.058 21.133 31.236 9.655 17.019 38.676 42.414 125.811 42.414s116.157-25.395 125.812-42.414c12.84-5.178 21.132-17.424 21.132-31.236 0-17.403-13.558-32.133-30.866-33.536-38.004-3.079-51.251-13.446-64.062-23.471-12.269-9.602-23.857-18.671-52.016-18.671-28.158 0-39.747 9.069-52.016 18.67-12.811 10.026-26.057 20.392-64.062 23.471-17.307 1.404-30.866 16.134-30.866 33.537zm146.944 58.65c-54.789 0-83.61-10.188-98.744-20.476 52.49 6.69 46.376-24.643 98.744-24.643 52.689 0 45.942 31.372 98.744 24.643-15.133 10.288-43.955 20.476-98.744 20.476zm-114.866-77.235c42.492-3.443 58.906-16.288 72.095-26.61 11.054-8.65 19.784-15.483 42.771-15.483s31.718 6.833 42.771 15.483c13.189 10.321 29.603 23.167 72.094 26.61 9.577.776 17.078 8.939 17.078 18.585 0 7.679-4.633 14.491-11.802 17.353-1.366.546-4.389 1.645-7.126 2.484-58.747 18.004-50.388-21.306-113.016-21.306-59.823 0-51.924 34.396-104.591 23.463-5.426-1.126-10.788-2.739-15.55-4.641-7.17-2.863-11.803-9.675-11.803-17.353.001-9.646 7.503-17.809 17.079-18.585z"/><path d="m466.097 228.557c0-85.621-68.718-159.661-164.29-178.086.294-7.855 2.841-15.784 7.603-23.64 7.786-12.849-3.107-28.884-17.985-26.612-17.869 2.738-29.33 11.351-35.425 17.449-6.094-6.098-17.554-14.712-35.425-17.45-14.906-2.282-25.755 13.792-17.985 26.613 4.763 7.858 7.309 15.786 7.603 23.642-31.586 6.11-61.43 18.648-86.652 36.45-3.384 2.388-4.191 7.068-1.803 10.452s7.068 4.192 10.452 1.803c25.006-17.649 54.937-29.753 86.56-35.003 3.586-.596 6.173-3.659 6.253-7.219 1.116-12.61-2.192-25.702-9.585-37.899-1.199-1.98.606-4.365 2.885-4.011 15.483 2.373 24.537 10.278 28.555 14.778 4.865 5.451 13.401 5.469 18.283.001 4.019-4.501 13.073-12.406 28.556-14.779 2.263-.349 4.09 2.022 2.885 4.011-7.35 12.127-10.663 25.137-9.604 37.68-.022 3.653 2.613 6.83 6.272 7.438 91.463 15.187 157.847 84.32 157.847 164.382 0 99.756-97.545 169.395-199.598 167.397-101.503-1.997-190.596-73.117-190.596-167.397 0-40.899 17.398-80.289 48.988-110.912 2.974-2.883 3.048-7.631.165-10.605-2.883-2.975-7.631-3.048-10.605-.165-34.531 33.474-53.548 76.688-53.548 121.683 0 48.943 21.996 94.892 61.937 129.382 7.474 6.454 15.41 12.359 23.743 17.696-14.946 15.789-46.654 57.677-46.654 128.866 0 4.142 3.358 7.5 7.5 7.5h327.142c4.142 0 7.5-3.358 7.5-7.5 0-24.768-3.916-48.315-11.639-69.987-1.39-3.901-5.679-5.937-9.582-4.547-3.902 1.391-5.938 5.681-4.547 9.582 6.366 17.865 9.936 37.157 10.64 57.452h-62.698c0-.029.001-.058.001-.087 0-19.822-9.97-38.322-28.074-52.093-36.183-27.525-94.146-27.536-130.344 0-18.104 13.771-28.074 32.272-28.074 52.093 0 .029.001.058.001.087h-62.695c1.396-39.834 13.715-68.768 24.148-86.38 8.046-13.584 16.173-22.606 20.71-27.121 66.623 36.154 153.665 37.171 222.163.001 4.864 4.844 13.84 14.854 22.434 30.105 2.033 3.609 6.607 4.886 10.216 2.852 3.608-2.034 4.885-6.607 2.852-10.216-8.054-14.293-16.403-24.427-22.198-30.586 8.345-5.342 16.292-11.254 23.776-17.716 39.939-34.492 61.936-80.441 61.936-129.384zm-288.343 268.356c0-31.831 35.101-57.728 78.246-57.728s78.246 25.897 78.246 57.728v.087h-156.492c0-.029 0-.058 0-.087z"/></g></g></svg>